<svg xmlns="http://www.w3.org/2000/svg" width="100%" height="100%" version="1.0" viewBox="0 0 1080 1080"><path fill="currentColor" d="M426.1 379.5c-37.8 8.6-65.5 35.7-74.8 73.3-1.1 4.5-1.7 11.1-1.7 20.2-.1 15 1.5 23.9 6.6 37.3 6.5 17 7.5 18.1 101.7 112.6l87.2 87.5 86.5-86.5c47.6-47.5 88.2-88.7 90.4-91.4 17.4-22.4 23.8-54.9 16.5-82.9-7.1-27.1-25.9-50-51-62.1-15.4-7.5-22.3-9-42-9-18.7 0-23.1.8-38.2 6.9-13 5.4-21.3 11.6-40.8 30.7-9.9 9.7-18.8 17.9-19.8 18.2-1 .4-2.8.2-4-.4-1.2-.6-10.1-8.9-19.7-18.4-22.6-22.2-32.7-28.9-52.1-34.5-9.8-2.9-35.1-3.7-44.8-1.5z"/></svg>