<?xml version="1.0" standalone="no"?>
<!DOCTYPE svg PUBLIC "-//W3C//DTD SVG 20010904//EN"
 "http://www.w3.org/TR/2001/REC-SVG-20010904/DTD/svg10.dtd">
<svg version="1.0" xmlns="http://www.w3.org/2000/svg"
 width="1080.000000pt" height="1080.000000pt" viewBox="0 0 1080.000000 1080.000000"
 preserveAspectRatio="xMidYMid meet">


<g transform="translate(0.000000,1080.000000) scale(0.100000,-0.100000)"
fill="red" stroke="black">
<path d="M4261 7005 c-378 -86 -655 -357 -748 -733 -11 -45 -17 -111 -17 -202
-1 -150 15 -239 66 -373 65 -170 75 -181 1017 -1126 l872 -875 865 865 c476
475 882 887 904 914 174 224 238 549 165 829 -71 271 -259 500 -510 621 -154
75 -223 90 -420 90 -187 0 -231 -8 -382 -69 -130 -54 -213 -116 -408 -307 -99
-97 -188 -179 -198 -182 -10 -4 -28 -2 -40 4 -12 6 -101 89 -197 184 -226 222
-327 289 -521 345 -98 29 -351 37 -448 15z"/>
</g>
</svg>
